<svg width="221" height="331" viewBox="0 0 221 331" fill="none" xmlns="http://www.w3.org/2000/svg">
<path d="M206.693 98.2859L152.734 74.9855L152.142 64.7427C152.024 62.5565 151.298 60.4472 150.047 58.652C148.796 56.8568 147.069 55.447 145.06 54.5812L93.6635 32.3876C91.6631 31.5147 89.4569 31.2235 87.2978 31.5474C85.1387 31.8713 83.1139 32.7973 81.4556 34.2192L73.5939 40.8116L19.6347 17.5112C17.7266 16.6872 15.5689 16.6558 13.6364 17.4239C11.704 18.1919 10.1549 19.6965 9.3301 21.6066L3.11008 36.011C2.28526 37.9211 2.25221 40.0804 3.01821 42.0137C3.78422 43.947 5.28652 45.496 7.19464 46.3199L194.253 127.095C196.162 127.919 198.319 127.95 200.252 127.182C202.184 126.414 203.733 124.909 204.558 122.999L210.778 108.595C211.603 106.685 211.636 104.525 210.87 102.592C210.104 100.659 208.602 99.1098 206.693 98.2859Z" fill="#FF5555"/>
<path d="M0.176758 307.465C0.176758 313.707 2.6537 319.693 7.06269 324.107C11.4717 328.521 17.4515 331 23.6868 331H164.747C170.982 331 176.962 328.521 181.371 324.107C185.78 319.693 188.257 313.707 188.257 307.465V142.721H0.176758V307.465ZM133.4 181.946C133.4 179.865 134.226 177.87 135.696 176.398C137.165 174.927 139.159 174.101 141.237 174.101C143.315 174.101 145.309 174.927 146.778 176.398C148.248 177.87 149.074 179.865 149.074 181.946V291.775C149.074 293.856 148.248 295.851 146.778 297.322C145.309 298.794 143.315 299.62 141.237 299.62C139.159 299.62 137.165 298.794 135.696 297.322C134.226 295.851 133.4 293.856 133.4 291.775V181.946ZM86.3802 181.946C86.3802 179.865 87.2059 177.87 88.6755 176.398C90.1452 174.927 92.1385 174.101 94.2169 174.101C96.2953 174.101 98.2886 174.927 99.7582 176.398C101.228 177.87 102.054 179.865 102.054 181.946V291.775C102.054 293.856 101.228 295.851 99.7582 297.322C98.2886 298.794 96.2953 299.62 94.2169 299.62C92.1385 299.62 90.1452 298.794 88.6755 297.322C87.2059 295.851 86.3802 293.856 86.3802 291.775V181.946ZM39.3601 181.946C39.3601 179.865 40.1858 177.87 41.6555 176.398C43.1251 174.927 45.1184 174.101 47.1968 174.101C49.2752 174.101 51.2685 174.927 52.7382 176.398C54.2079 177.87 55.0335 179.865 55.0335 181.946V291.775C55.0335 293.856 54.2079 295.851 52.7382 297.322C51.2685 298.794 49.2752 299.62 47.1968 299.62C45.1184 299.62 43.1251 298.794 41.6555 297.322C40.1858 295.851 39.3601 293.856 39.3601 291.775V181.946Z" fill="#FF5555"/>
</svg>
