<svg width="220" height="252" viewBox="0 0 220 252" fill="none" xmlns="http://www.w3.org/2000/svg">
<path d="M15.6734 227.504C15.6734 233.746 18.1503 239.732 22.5593 244.146C26.9683 248.56 32.9481 251.039 39.1834 251.039H180.244C186.479 251.039 192.459 248.56 196.868 244.146C201.277 239.732 203.754 233.746 203.754 227.504V62.7599H15.6734V227.504ZM148.897 101.985C148.897 99.9042 149.723 97.9088 151.192 96.4375C152.662 94.9663 154.655 94.1398 156.734 94.1398C158.812 94.1398 160.805 94.9663 162.275 96.4375C163.745 97.9088 164.57 99.9042 164.57 101.985V211.814C164.57 213.895 163.745 215.89 162.275 217.362C160.805 218.833 158.812 219.659 156.734 219.659C154.655 219.659 152.662 218.833 151.192 217.362C149.723 215.89 148.897 213.895 148.897 211.814V101.985ZM101.877 101.985C101.877 99.9042 102.702 97.9088 104.172 96.4375C105.642 94.9663 107.635 94.1398 109.713 94.1398C111.792 94.1398 113.785 94.9663 115.255 96.4375C116.725 97.9088 117.55 99.9042 117.55 101.985V211.814C117.55 213.895 116.725 215.89 115.255 217.362C113.785 218.833 111.792 219.659 109.713 219.659C107.635 219.659 105.642 218.833 104.172 217.362C102.702 215.89 101.877 213.895 101.877 211.814V101.985ZM54.8567 101.985C54.8567 99.9042 55.6824 97.9088 57.1521 96.4375C58.6217 94.9663 60.615 94.1398 62.6934 94.1398C64.7718 94.1398 66.7651 94.9663 68.2348 96.4375C69.7045 97.9088 70.5301 99.9042 70.5301 101.985V211.814C70.5301 213.895 69.7045 215.89 68.2348 217.362C66.7651 218.833 64.7718 219.659 62.6934 219.659C60.615 219.659 58.6217 218.833 57.1521 217.362C55.6824 215.89 54.8567 213.895 54.8567 211.814V101.985ZM211.59 15.69H152.815L148.211 6.52122C147.236 4.56103 145.734 2.91215 143.873 1.7601C142.013 0.608043 139.868 -0.00148464 137.681 8.59648e-05H81.6974C79.5147 -0.00831333 77.3739 0.598942 75.5201 1.75228C73.6663 2.90562 72.1746 4.55838 71.2158 6.52122L66.6118 15.69H7.83668C5.75826 15.69 3.76497 16.5166 2.29531 17.9878C0.825648 19.459 0 21.4544 0 23.535L0 39.225C0 41.3056 0.825648 43.301 2.29531 44.7722C3.76497 46.2434 5.75826 47.0699 7.83668 47.0699H211.59C213.669 47.0699 215.662 46.2434 217.132 44.7722C218.601 43.301 219.427 41.3056 219.427 39.225V23.535C219.427 21.4544 218.601 19.459 217.132 17.9878C215.662 16.5166 213.669 15.69 211.59 15.69Z" fill="white"/>
</svg>
